<?xml version="1.0" standalone="no"?>
<!DOCTYPE svg PUBLIC "-//W3C//DTD SVG 20010904//EN"
 "http://www.w3.org/TR/2001/REC-SVG-20010904/DTD/svg10.dtd">
<svg version="1.0" xmlns="http://www.w3.org/2000/svg"
 width="609.000000pt" height="404.000000pt" viewBox="0 0 609.000000 404.000000"
 preserveAspectRatio="xMidYMid meet">

<g transform="translate(0.000000,404.000000) scale(0.100000,-0.100000)"
fill="#000000" stroke="none">
<path d="M1321 3442 c-19 -9 -44 -30 -55 -45 l-21 -28 0 -1379 0 -1379 21 -28
c11 -15 36 -36 55 -45 32 -17 134 -18 1714 -18 1659 0 1680 0 1713 20 18 11
41 34 52 52 20 33 20 54 20 1399 l0 1366 -23 34 c-12 19 -38 42 -57 51 -33 17
-135 18 -1710 18 -1575 0 -1677 -1 -1709 -18z m1788 -326 c133 -78 268 -133
442 -181 67 -18 66 -13 75 -207 7 -145 -6 -318 -31 -413 -61 -235 -236 -411
-484 -485 l-73 -23 -82 23 c-127 34 -209 82 -307 180 -97 97 -145 180 -180
315 -24 92 -36 340 -25 497 l8 95 84 23 c143 38 327 117 449 194 22 14 42 26
44 26 2 0 38 -20 80 -44z m1111 -1684 c0 -56 -3 -69 -20 -80 -13 -8 -20 -23
-20 -42 0 -19 7 -33 20 -40 17 -9 20 -21 20 -85 l0 -74 -42 15 c-112 39 -168
100 -168 181 1 84 55 151 143 179 67 21 67 21 67 -54z m-1906 16 c3 -24 15
-155 26 -293 11 -137 23 -267 26 -287 l6 -38 -86 0 c-47 0 -86 1 -86 3 0 1 -9
96 -20 212 -11 116 -20 219 -20 230 0 39 -18 -3 -58 -135 -22 -74 -52 -174
-67 -222 l-26 -88 -54 0 -54 0 -27 88 c-26 84 -27 96 -28 319 -1 127 1 230 4
227 3 -3 25 -71 50 -150 25 -80 50 -145 55 -143 6 1 18 30 28 63 10 34 32 105
48 159 l30 97 124 0 124 0 5 -42z m582 10 c105 -55 161 -172 152 -316 -11
-163 -69 -248 -201 -293 -41 -15 -85 -18 -214 -19 l-163 0 0 331 0 331 188 -4
c181 -3 189 -4 238 -30z m547 -50 c14 -46 36 -118 48 -160 13 -43 26 -78 29
-78 4 0 29 71 56 158 l50 157 127 3 127 3 0 -28 c0 -15 11 -154 25 -308 14
-154 25 -290 25 -302 0 -22 -4 -23 -83 -23 l-84 0 -18 213 c-10 116 -21 220
-25 230 -4 12 -31 -66 -75 -212 l-69 -231 -55 0 -56 0 -69 230 c-38 127 -70
229 -72 228 -2 -3 -44 -423 -44 -446 0 -8 -27 -12 -85 -12 l-85 0 0 28 c0 15
12 163 27 330 l27 302 127 0 127 0 25 -82z m717 -368 c0 -10 14 -35 30 -53 26
-30 30 -42 30 -96 0 -69 -5 -72 -79 -46 -58 20 -109 62 -132 107 -31 60 -24
70 61 89 41 9 78 17 83 18 4 1 7 -8 7 -19z"/>
<path d="M2960 3055 c-77 -48 -247 -119 -362 -151 l-96 -27 -8 -96 c-9 -129 2
-362 21 -436 59 -228 226 -398 453 -459 62 -17 65 -17 135 4 234 71 393 239
443 465 18 85 29 354 17 449 l-8 70 -90 26 c-132 39 -239 83 -338 140 -48 27
-93 50 -100 49 -6 0 -37 -16 -67 -34z m178 -372 l3 -123 129 0 130 0 0 -100 0
-100 -130 0 -130 0 0 -125 0 -125 -105 0 -105 0 0 125 0 125 -130 0 -130 0 0
94 0 94 130 7 130 7 0 117 c0 65 3 121 7 125 4 4 50 5 103 4 l95 -3 3 -122z"/>
<path d="M2640 1166 l0 -186 63 0 c115 0 162 52 162 180 0 87 -22 143 -65 165
-15 8 -57 17 -94 21 l-66 7 0 -187z"/>
</g>
</svg>
